Coordinates
version=1
nRows=7
nColumns=32
inDegrees=yes

Units are S.I. units (second, meters, Newtons, ...)
If the header above contains a line with 'inDegrees', this indicates whether rotational values are in degrees (yes) or radians (no).

endheader
time	pelvis_tilt	pelvis_list	pelvis_rotation	pelvis_tx	pelvis_ty	pelvis_tz	hip_flexion_r	hip_adduction_r	hip_rotation_r	knee_angle_r	ankle_angle_r	subtalar_angle_r	mtp_angle_r	hip_flexion_l	hip_adduction_l	hip_rotation_l	knee_angle_l	ankle_angle_l	subtalar_angle_l	mtp_angle_l	lumbar_extension	lumbar_bending	lumbar_rotation	arm_flex_r	arm_add_r	arm_rot_r	elbow_flex_r	arm_flex_l	arm_add_l	arm_rot_l	elbow_flex_l
      2.90000000	    -12.95850028	    -10.02691924	    -10.53121337	     -0.04767232	      0.87338035	     -0.21566083	     21.37251890	     12.58774381	    -12.14351964	    -23.47942283	      9.69518076	     -1.70950934	      0.00000000	     47.54215962	    -17.85458466	     -7.60404032	    -69.78752931	      3.86772265	    -27.25319854	      0.00000000	     -5.83032158	     19.64989001	     15.45972739	      0.00000000	      0.00000000	      0.00000000	      0.00000000	      0.00000000	      0.00000000	      0.00000000	      0.00000000
      2.91000000	    -13.15750919	     -9.55634514	    -11.15399508	     -0.04105973	      0.87344317	     -0.21500373	     21.41349925	     12.08665587	    -12.19067490	    -23.82015649	      9.30591721	     -0.93060718	      0.00000000	     48.69928450	    -17.73791877	     -8.22292439	    -68.41206143	      4.09716163	    -26.73219861	      0.00000000	     -5.96149402	     19.08605125	     16.07298258	      0.00000000	      0.00000000	      0.00000000	      0.00000000	      0.00000000	      0.00000000	      0.00000000	      0.00000000
      2.92000000	    -13.17767484	     -9.52561997	    -11.31278777	     -0.03357885	      0.87338439	     -0.21450257	     20.85415021	     12.03403059	    -12.08767680	    -23.72351390	      9.47751691	     -0.87973324	      0.00000000	     49.78463667	    -17.58145983	     -8.06463556	    -67.03580683	      4.22378170	    -26.65618876	      0.00000000	     -6.13483416	     18.97644812	     16.28387135	      0.00000000	      0.00000000	      0.00000000	      0.00000000	      0.00000000	      0.00000000	      0.00000000	      0.00000000
      2.93000000	    -12.68522412	     -9.48991376	    -11.51437952	     -0.02611999	      0.87420159	     -0.21388954	     19.82059394	     11.86548349	    -12.24230062	    -23.73076014	      9.55035262	     -0.86922562	      0.00000000	     50.00202678	    -17.69221809	     -8.48380860	    -65.20859255	      4.29999645	    -26.65080142	      0.00000000	     -6.98573804	     18.70548755	     16.35644789	      0.00000000	      0.00000000	      0.00000000	      0.00000000	      0.00000000	      0.00000000	      0.00000000	      0.00000000
      2.94000000	    -11.99519559	     -9.36006254	    -11.50179027	     -0.01870759	      0.87515743	     -0.21385867	     18.50016368	     11.53256226	    -12.03910462	    -23.61765434	      9.70994881	     -0.75592127	      0.00000000	     50.00202678	    -17.47584996	     -8.86414953	    -63.01349243	      4.36487059	    -26.62592335	      0.00000000	     -8.00730250	     18.26737968	     16.64272275	      0.00000000	      0.00000000	      0.00000000	      0.00000000	      0.00000000	      0.00000000	      0.00000000	      0.00000000
      2.95000000	    -11.54190870	     -8.94169538	    -12.05482499	     -0.01189641	      0.87530371	     -0.21165887	     17.59584634	     11.47495311	    -10.33964069	    -23.86381324	     11.15832074	     -0.86569656	      0.00000000	     50.00202678	    -17.58842625	     -9.71166898	    -60.89188172	      4.19858328	    -27.26783827	      0.00000000	     -8.79286403	     17.26331002	     17.03469273	      0.00000000	      0.00000000	      0.00000000	      0.00000000	      0.00000000	      0.00000000	      0.00000000	      0.00000000
      2.96000000	    -11.04083794	     -8.89964990	    -12.16612570	     -0.00482261	      0.87575860	     -0.21154888	     16.56983242	     11.27082696	    -10.15931418	    -23.90634122	     11.19926073	     -0.79403079	      0.00000000	     50.00202678	    -17.42880399	     -9.84994340	    -58.56974489	      4.22605108	    -27.23814385	      0.00000000	     -9.68897257	     16.95300934	     17.31602902	      0.00000000	      0.00000000	      0.00000000	      0.00000000	      0.00000000	      0.00000000	      0.00000000	      0.00000000
